<svg xmlns="http://www.w3.org/2000/svg" viewBox="0 0 64 64" role="img" aria-label="AquaSense">
  <defs>
    <linearGradient id="bg" x1="10" y1="6" x2="54" y2="58" gradientUnits="userSpaceOnUse">
      <stop stop-color="#07111d"/>
      <stop offset="1" stop-color="#0f766e"/>
    </linearGradient>
    <linearGradient id="drop" x1="22" y1="12" x2="42" y2="48" gradientUnits="userSpaceOnUse">
      <stop stop-color="#7dd3fc"/>
      <stop offset="1" stop-color="#06b6d4"/>
    </linearGradient>
  </defs>

  <rect width="64" height="64" rx="14" fill="url(#bg)"/>
  <path
    d="M32 9c6.8 8.2 13.5 17.1 13.5 26.1 0 8.1-5.6 14.4-13.5 14.4s-13.5-6.3-13.5-14.4C18.5 26.1 25.2 17.2 32 9Z"
    fill="url(#drop)"
  />
  <path
    d="M25.7 36.7c1.7 3.3 4.4 5 8.2 5"
    fill="none"
    stroke="#e0f2fe"
    stroke-width="4"
    stroke-linecap="round"
    opacity=".9"
  />
  <circle cx="45.5" cy="18.5" r="3.4" fill="#facc15"/>
  <path
    d="M48.5 27.5c3.8 1.6 6.3 5.2 6.3 9.3M47.6 34.5c1.2.8 1.9 2.1 1.9 3.7"
    fill="none"
    stroke="#facc15"
    stroke-width="3.2"
    stroke-linecap="round"
    opacity=".95"
  />
  <path
    d="M15 50c4.2-3.1 8.4-3.1 12.6 0 4.2 3.1 8.4 3.1 12.6 0 3.4-2.5 6.9-3 10.3-1.4"
    fill="none"
    stroke="#a7f3d0"
    stroke-width="3.5"
    stroke-linecap="round"
  />
</svg>
